<svg width="25" height="25" viewBox="0 0 25 25" fill="none" xmlns="http://www.w3.org/2000/svg">
<path fill-rule="evenodd" clip-rule="evenodd" d="M15.7795 17.2379C12.1354 20.1566 6.80114 19.9269 3.42307 16.5488C-0.201487 12.9242 -0.201487 7.04768 3.42307 3.42313C7.04762 -0.201427 12.9242 -0.201426 16.5487 3.42313C19.9268 6.8012 20.1565 12.1354 17.2379 15.7795L24.3269 22.8685C24.7296 23.2713 24.7296 23.9242 24.3269 24.3269C23.9242 24.7297 23.2712 24.7297 22.8685 24.3269L15.7795 17.2379ZM4.88147 15.0904C2.06238 12.2713 2.06238 7.70063 4.88147 4.88154C7.70057 2.06244 12.2712 2.06244 15.0903 4.88154C17.9074 7.69856 17.9094 12.2646 15.0965 15.0842C15.0944 15.0862 15.0924 15.0883 15.0903 15.0904C15.0882 15.0924 15.0862 15.0945 15.0841 15.0966C12.2645 17.9095 7.6985 17.9074 4.88147 15.0904Z" fill="#11698E"/>
</svg>
